<svg height='300px' width='300px'  fill="#000000" xmlns="http://www.w3.org/2000/svg" xmlns:xlink="http://www.w3.org/1999/xlink" version="1.1" x="0px" y="0px" viewBox="0 0 100 100" enable-background="new 0 0 100 100" xml:space="preserve"><path d="M53,61.155c-3.023,0-5.558,2.104-6.234,4.921H27.011c-0.829,0-1.5,0.672-1.5,1.5s0.671,1.5,1.5,1.5h19.757  c0.68,2.813,3.212,4.913,6.232,4.913c3.538,0,6.416-2.879,6.416-6.417S56.538,61.155,53,61.155z M53,70.989  c-1.883,0-3.414-1.529-3.417-3.41c0-0.001,0-0.002,0-0.003c0-0.002,0-0.005,0-0.007c0.001-1.883,1.534-3.414,3.417-3.414  s3.416,1.533,3.416,3.417S54.884,70.989,53,70.989z M27.01,32.927h23.756c0.678,2.816,3.212,4.918,6.232,4.918  c3.538,0,6.417-2.879,6.417-6.418c0-3.538-2.879-6.416-6.417-6.416c-3.021,0-5.555,2.101-6.232,4.916H27.01  c-0.829,0-1.5,0.671-1.5,1.5S26.182,32.927,27.01,32.927z M56.999,28.011c1.884,0,3.417,1.532,3.417,3.416  c0,1.885-1.533,3.418-3.417,3.418s-3.417-1.533-3.417-3.418C53.582,29.543,55.115,28.011,56.999,28.011z M67.915,32.927h5.072  c0.828,0,1.5-0.671,1.5-1.5s-0.672-1.5-1.5-1.5h-5.072c-0.828,0-1.5,0.671-1.5,1.5S67.087,32.927,67.915,32.927z M72.988,48H49.832  c-0.829,0-1.5,0.671-1.5,1.5s0.671,1.5,1.5,1.5h23.156c0.828,0,1.5-0.672,1.5-1.5S73.816,48,72.988,48z M27.01,50.998h5.756  c0.678,2.816,3.211,4.918,6.233,4.918c3.539,0,6.417-2.879,6.417-6.417c0-3.539-2.878-6.417-6.417-6.417  c-3.021,0-5.554,2.101-6.232,4.917H27.01c-0.829,0-1.5,0.671-1.5,1.5S26.182,50.998,27.01,50.998z M39,46.082  c1.884,0,3.417,1.533,3.417,3.417S40.884,52.916,39,52.916s-3.417-1.532-3.417-3.417S37.115,46.082,39,46.082z M72.988,66.072  h-9.072c-0.828,0-1.5,0.672-1.5,1.5s0.672,1.5,1.5,1.5h9.072c0.828,0,1.5-0.672,1.5-1.5S73.816,66.072,72.988,66.072z"></path></svg>